<mxfile host="app.diagrams.net" modified="2022-11-09T01:55:12.443Z" agent="5.0 (Windows NT 10.0; Win64; x64) AppleWebKit/537.36 (KHTML, like Gecko) Chrome/107.0.0.0 Safari/537.36" etag="ctpAMpUgiPWbefv__Zwc" version="20.5.3" type="github">
  <diagram id="qvqnUpQAezrzBbc9ielx" name="PÃ¡gina-1">
    <mxGraphModel dx="1038" dy="547" grid="1" gridSize="10" guides="1" tooltips="1" connect="1" arrows="1" fold="1" page="1" pageScale="1" pageWidth="827" pageHeight="1169" math="0" shadow="0">
      <root>
        <mxCell id="0" />
        <mxCell id="1" parent="0" />
        <mxCell id="Yr39IJkZ_RrNIDY9iV85-4" style="edgeStyle=orthogonalEdgeStyle;rounded=0;orthogonalLoop=1;jettySize=auto;html=1;" edge="1" parent="1" source="Yr39IJkZ_RrNIDY9iV85-1" target="Yr39IJkZ_RrNIDY9iV85-2">
          <mxGeometry relative="1" as="geometry" />
        </mxCell>
        <mxCell id="Yr39IJkZ_RrNIDY9iV85-1" value="" style="ellipse;whiteSpace=wrap;html=1;" vertex="1" parent="1">
          <mxGeometry x="90" y="200" width="20" height="30" as="geometry" />
        </mxCell>
        <mxCell id="Yr39IJkZ_RrNIDY9iV85-7" style="edgeStyle=orthogonalEdgeStyle;rounded=0;orthogonalLoop=1;jettySize=auto;html=1;exitX=1;exitY=0.5;exitDx=0;exitDy=0;" edge="1" parent="1" source="Yr39IJkZ_RrNIDY9iV85-8" target="Yr39IJkZ_RrNIDY9iV85-6">
          <mxGeometry relative="1" as="geometry" />
        </mxCell>
        <mxCell id="Yr39IJkZ_RrNIDY9iV85-9" style="edgeStyle=orthogonalEdgeStyle;rounded=0;orthogonalLoop=1;jettySize=auto;html=1;entryX=1;entryY=0;entryDx=0;entryDy=0;" edge="1" parent="1" source="Yr39IJkZ_RrNIDY9iV85-2" target="Yr39IJkZ_RrNIDY9iV85-8">
          <mxGeometry relative="1" as="geometry">
            <Array as="points">
              <mxPoint x="390" y="215" />
              <mxPoint x="390" y="319" />
            </Array>
          </mxGeometry>
        </mxCell>
        <mxCell id="Yr39IJkZ_RrNIDY9iV85-2" value="parametrizados" style="ellipse;whiteSpace=wrap;html=1;" vertex="1" parent="1">
          <mxGeometry x="280" y="177.5" width="100" height="75" as="geometry" />
        </mxCell>
        <mxCell id="Yr39IJkZ_RrNIDY9iV85-3" value="inicio" style="text;html=1;align=center;verticalAlign=middle;resizable=0;points=[];autosize=1;strokeColor=none;fillColor=none;" vertex="1" parent="1">
          <mxGeometry x="75" y="245" width="50" height="30" as="geometry" />
        </mxCell>
        <mxCell id="Yr39IJkZ_RrNIDY9iV85-5" value="ver un tutorial" style="text;html=1;align=center;verticalAlign=middle;resizable=0;points=[];autosize=1;strokeColor=none;fillColor=none;" vertex="1" parent="1">
          <mxGeometry x="160" y="185" width="100" height="30" as="geometry" />
        </mxCell>
        <mxCell id="Yr39IJkZ_RrNIDY9iV85-6" value="finalizado" style="ellipse;whiteSpace=wrap;html=1;" vertex="1" parent="1">
          <mxGeometry x="490" y="175" width="90" height="80" as="geometry" />
        </mxCell>
        <mxCell id="Yr39IJkZ_RrNIDY9iV85-15" style="edgeStyle=orthogonalEdgeStyle;rounded=0;orthogonalLoop=1;jettySize=auto;html=1;entryX=0.42;entryY=0.991;entryDx=0;entryDy=0;entryPerimeter=0;" edge="1" parent="1" source="Yr39IJkZ_RrNIDY9iV85-8" target="Yr39IJkZ_RrNIDY9iV85-2">
          <mxGeometry relative="1" as="geometry">
            <Array as="points">
              <mxPoint x="270" y="270" />
              <mxPoint x="322" y="270" />
            </Array>
          </mxGeometry>
        </mxCell>
        <mxCell id="Yr39IJkZ_RrNIDY9iV85-8" value="En ejecucion" style="ellipse;whiteSpace=wrap;html=1;" vertex="1" parent="1">
          <mxGeometry x="270" y="310" width="120" height="60" as="geometry" />
        </mxCell>
        <mxCell id="Yr39IJkZ_RrNIDY9iV85-13" value="iniciar tutorial" style="text;html=1;align=center;verticalAlign=middle;resizable=0;points=[];autosize=1;strokeColor=none;fillColor=none;" vertex="1" parent="1">
          <mxGeometry x="380" y="255" width="90" height="30" as="geometry" />
        </mxCell>
        <mxCell id="Yr39IJkZ_RrNIDY9iV85-14" value="terminar&amp;nbsp; Tutorial" style="text;html=1;align=center;verticalAlign=middle;resizable=0;points=[];autosize=1;strokeColor=none;fillColor=none;" vertex="1" parent="1">
          <mxGeometry x="414" y="340" width="110" height="30" as="geometry" />
        </mxCell>
        <mxCell id="Yr39IJkZ_RrNIDY9iV85-16" value="Salir del tutorial" style="text;html=1;align=center;verticalAlign=middle;resizable=0;points=[];autosize=1;strokeColor=none;fillColor=none;" vertex="1" parent="1">
          <mxGeometry x="160" y="280" width="110" height="30" as="geometry" />
        </mxCell>
      </root>
    </mxGraphModel>
  </diagram>
</mxfile>
